<svg xmlns="http://www.w3.org/2000/svg" viewBox="0 0 128 128"><path fill="#fff" d="M101.1 105.6C93.7 92.7 79.9 84 64 84c-15.9 0-29.7 8.7-37.1 21.6l.1 3.4h74l.1-3.4z"/><path fill="#71c2ff" d="M109.7 88H92.3c-1.1 0-2.1.6-2.6 1.5l-8.7 15c-.5.9-.5 2.1 0 3l8.7 15c.5.9 1.5 1.5 2.6 1.5h17.3c1.1 0 2.1-.6 2.6-1.5l8.7-15c.5-.9.5-2.1 0-3l-8.7-15c-.5-.9-1.5-1.5-2.5-1.5z"/><path fill="#fff" d="M101 97a9 9 0 100 18 9 9 0 100-18z"/><path fill="#444b54" d="M78.8 89.7c-.3 0-.7-.1-1-.2-4.4-1.6-9-2.5-13.8-2.5-1.7 0-3-1.3-3-3s1.3-3 3-3c5.5 0 10.8 1 15.9 2.8 1.6.6 2.3 2.3 1.8 3.9-.5 1.2-1.7 2-2.9 2z"/><path fill="#444b54" d="M26.9 108.6c-.5 0-1-.1-1.5-.4-1.4-.8-1.9-2.6-1.1-4.1C32.4 89.9 47.6 81 64 81c1.7 0 3 1.3 3 3s-1.3 3-3 3c-14.2 0-27.4 7.7-34.5 20.1-.5.9-1.5 1.5-2.6 1.5z"/><path fill="#fff" d="M64 30a20 20 0 100 40 20 20 0 100-40z"/><path fill="#444b54" d="M64 73c-12.7 0-23-10.3-23-23s10.3-23 23-23 23 10.3 23 23-10.3 23-23 23zm0-40c-9.4 0-17 7.6-17 17s7.6 17 17 17 17-7.6 17-17-7.6-17-17-17z"/></svg>