<svg xmlns="http://www.w3.org/2000/svg" viewBox="0 0 64 64"><path d="M40.8 23H23.3c-3.8 0-7 2.852-7.448 6.602L14.5 41h35l-1.25-11.352C47.8 25.852 44.602 23 40.8 23zm0 0" fill="#fff"/><path d="M40.8 23H32v18h17.5l-1.25-11.352C47.8 25.852 44.602 23 40.8 23zm0 0" fill="#fff"/><path d="M48 27.5H33.5c-.852 0-1.5.648-1.5 1.5v12h17.5zm0 0" fill="#71c2ff"/><path d="M14.5 38h35v17h-35zm0 0" fill="#71c2ff"/><path d="M54.5 55v-9c0-2.75-2.25-5-5-5s-5 2.25-5 5v9" fill="#444b54"/><path d="M56 53.5V46c0-3.102-2.2-5.75-5.148-6.352L49.75 29.5c-.5-4.55-4.352-8-8.95-8H23.3a9.016 9.016 0 00-8.948 7.95l-1.204 10.198C10.2 40.25 8 42.898 8 46v7.5c-.852 0-1.5.648-1.5 1.5s.648 1.5 1.5 1.5h3V62c0 .852.648 1.5 1.5 1.5h42c.852 0 1.5-.648 1.5-1.5s-.648-1.5-1.5-1.5H53v-4h3c.852 0 1.5-.648 1.5-1.5s-.648-1.5-1.5-1.5zM16.148 39.7c5.25-.75 10.551-1.098 15.852-1.098V53.5H21V46c0-3-2.05-5.55-4.852-6.3zM46 60.5H18v-4h28zM16.55 36.602l.802-6.801a5.997 5.997 0 015.949-5.301h17.5c3.05 0 5.648 2.3 5.949 5.352l.75 6.75a118.624 118.624 0 00-30.95 0zm0 0" fill="#444b54"/><path d="M37.7 53.5H26.3v-6.45c0-3.152 2.552-5.698 5.7-5.698s5.7 2.546 5.7 5.699zm-23.2-10A2.502 2.502 0 0012 46c0 1.379 1.121 2.5 2.5 2.5S17 47.379 17 46s-1.121-2.5-2.5-2.5zm35 0A2.502 2.502 0 0047 46c0 1.379 1.121 2.5 2.5 2.5S52 47.379 52 46s-1.121-2.5-2.5-2.5zm0 0" fill="#fff"/><path d="M62 63.5c-.102 0-.2 0-.3-.05-.098 0-.2-.052-.302-.098-.097-.051-.148-.102-.25-.153a.915.915 0 01-.25-.199c-.296-.3-.449-.648-.449-1.05 0-.4.153-.802.45-1.052.55-.546 1.55-.546 2.101 0 .3.301.45.653.45 1.051 0 .403-.15.801-.45 1.051-.2.352-.602.5-1 .5zm0 0" fill="#444b54"/></svg>