<svg xmlns="http://www.w3.org/2000/svg" viewBox="0 0 480 480"><path d="M240 176c-35.346 0-64 28.654-64 64 0 35.346 28.654 64 64 64 35.346 0 64-28.654 64-64-.04-35.33-28.67-63.96-64-64zm0 112c-26.51 0-48-21.49-48-48s21.49-48 48-48 48 21.49 48 48c-.026 26.499-21.501 47.974-48 48zm0-256c-35.346 0-64 28.654-64 64 0 35.346 28.654 64 64 64 35.346 0 64-28.654 64-64-.04-35.33-28.67-63.96-64-64zm0 112c-26.51 0-48-21.49-48-48s21.49-48 48-48 48 21.49 48 48c-.026 26.499-21.501 47.974-48 48zm0 176c-35.346 0-64 28.654-64 64 0 35.346 28.654 64 64 64 35.346 0 64-28.654 64-64-.04-35.33-28.67-63.96-64-64zm0 112c-26.51 0-48-21.49-48-48s21.49-48 48-48 48 21.49 48 48c-.026 26.499-21.501 47.974-48 48z"/><path d="M456 184a8 8 0 00-8-8H344v-16.408C406.961 155.358 455.898 103.104 456 40a8 8 0 00-8-8H343.2C339.373 13.389 323.001.024 304 0H176c-19.001.024-35.373 13.389-39.2 32H32a8 8 0 00-8 8c.102 63.104 49.039 115.358 112 119.592V176H32a8 8 0 00-8 8c.102 63.104 49.039 115.358 112 119.592V320H32a8 8 0 00-8 8c.104 63.41 49.506 115.804 112.8 119.632 3.666 18.763 20.083 32.318 39.2 32.368h128c19.117-.05 35.534-13.605 39.2-32.368C406.494 443.804 455.896 391.41 456 328a8 8 0 00-8-8H344v-16.408c62.961-4.234 111.898-56.488 112-119.592zM344 48h95.696c-4.011 51.098-44.598 91.685-95.696 95.696V48zm0 144h95.696c-4.011 51.098-44.598 91.685-95.696 95.696V192zM136 431.696C84.902 427.685 44.315 387.098 40.304 336H136v95.696zm0-144C84.902 283.685 44.315 243.098 40.304 192H136v95.696zm0-144C84.902 139.685 44.315 99.098 40.304 48H136v95.696zM328 440c0 13.255-10.745 24-24 24H176c-13.255 0-24-10.745-24-24V40c0-13.255 10.745-24 24-24h128c13.255 0 24 10.745 24 24v400zm111.696-104c-4.011 51.098-44.598 91.685-95.696 95.696V336h95.696z"/></svg>