<svg xmlns="http://www.w3.org/2000/svg" viewBox="0 0 64 64"><switch><g><path d="M33.6 4.35h25.93v2.51H33.6zm6.76 27.03c-.34 0-.61-.27-.61-.61V16.83c0-.34.27-.61.61-.61.34 0 .61.27.61.61v13.95c0 .33-.28.6-.61.6zM38.6 46.97h-.55v-3.23h2.01v.51H38.6v.91h1.31v.5H38.6v1.31zm3.96 0l-.31-.81h-1.37l-.3.81H40l1.26-3.23h.63l1.26 3.23h-.59zm-.98-2.63l-.49 1.32h.98l-.49-1.32zm4.1.16l-.49.15a.588.588 0 00-.19-.34c-.1-.1-.25-.15-.45-.15-.16 0-.29.05-.4.14-.1.09-.16.2-.16.33 0 .22.13.36.38.41l.46.1c.28.05.49.17.65.33.15.17.23.37.23.6 0 .27-.1.5-.31.69-.21.19-.48.29-.83.29-.38 0-.68-.1-.89-.3-.21-.2-.33-.43-.36-.69l.51-.15c.02.18.09.34.22.46.13.13.3.19.52.19.19 0 .33-.04.43-.13.1-.08.15-.19.15-.32 0-.1-.04-.2-.11-.28-.07-.08-.18-.13-.32-.16l-.45-.1c-.25-.05-.45-.16-.6-.31a.815.815 0 01-.22-.59c0-.27.11-.5.32-.7.21-.19.47-.29.77-.29.34 0 .61.08.79.25.19.16.31.35.35.57zm2.91-.24h-1.05v2.71h-.55v-2.71h-1.05v-.51h2.64v.51zm-.12 2.11c0-.19.06-.34.18-.45.12-.11.28-.18.48-.22l.57-.09c.11-.02.16-.07.16-.16 0-.1-.03-.18-.1-.24s-.17-.09-.31-.09c-.13 0-.24.04-.32.11-.08.07-.13.17-.14.29l-.48-.11c.02-.2.12-.37.29-.51s.38-.21.65-.21c.32 0 .56.08.71.23.15.15.23.35.23.6v1.1c0 .14.01.26.03.35h-.49c-.02-.05-.02-.14-.02-.28-.14.23-.37.35-.68.35-.22 0-.41-.07-.54-.2a.559.559 0 01-.22-.47zm.85.26c.16 0 .3-.04.4-.13.1-.09.15-.24.15-.44v-.1l-.58.09c-.2.03-.3.13-.3.3 0 .08.03.15.09.2.06.05.14.08.24.08zm1.54.47l.49-.13a.556.556 0 00.56.48c.42 0 .63-.22.63-.66v-.23c-.05.09-.13.17-.25.23-.11.06-.24.09-.4.09-.3 0-.54-.1-.73-.31s-.29-.46-.29-.77c0-.3.1-.56.29-.76.19-.21.44-.31.74-.31.33 0 .54.11.66.32v-.28h.51v2.01c0 .33-.09.6-.28.82-.19.22-.47.33-.86.33-.29 0-.53-.08-.72-.23-.21-.18-.32-.37-.35-.6zm1.12-.68c.17 0 .31-.06.41-.17.1-.11.16-.27.16-.46s-.05-.34-.16-.45a.535.535 0 00-.41-.17c-.17 0-.31.06-.42.17-.11.11-.16.26-.16.45s.05.34.16.46c.1.12.24.17.42.17zM6.04 36.32l2.9-4.1H5.87l-.82 3z"/><path d="M32.88 50.97V38.32H7.8c-2.17 0-3.76-1.51-3.8-3.56-.04-1.96 1.47-3.55 3.46-3.66.23-.01.45-.01.68-.01h24.74V9.41c-.28 0-.55.01-.82 0-.62-.03-.94-.34-.95-.96-.02-1.17-.01-2.33 0-3.5 0-.58.31-.89.89-.95.15-.01.3 0 .45 0h26.2C59.76 4 60 4.24 60 5.35v2.77c0 1.04-.25 1.29-1.3 1.3h-.47v41.56h.46c1.05.01 1.31.26 1.31 1.29v6.55c0 .88-.3 1.18-1.18 1.18H4.03v-1.79H31.1v-5.95c0-1.04.25-1.29 1.3-1.3.14.01.29.01.48.01zm1.85-.04h21.61V40.16H34.73v10.77zm0-12.65h21.61V9.44H34.73v28.84zm-1.8 19.88h25.22v-5.35H32.93v5.35zm0-50.59h25.22V5.83H32.93v1.74zM10.69 36.52c2.18 0 4.19.01 6.2-.01.19 0 .42-.14.56-.28 1-.97 1.97-1.96 2.96-2.95.09-.09.17-.21.3-.37-2.1 0-4.11 0-6.12.01-.14 0-.31.04-.4.13-1.14 1.11-2.27 2.23-3.5 3.47zm19.02-3.53c-.07-.04-.09-.08-.12-.08-1.99 0-3.98-.01-5.98-.01-.12 0-.28.03-.36.1-1.14 1.13-2.27 2.27-3.41 3.42.07.04.09.08.12.08 1.99 0 3.98.01 5.98.01.12 0 .28-.03.36-.1 1.14-1.13 2.27-2.27 3.41-3.42zm-17.97-.08c-1.53 0-2.92-.03-4.3.01-.93.03-1.66.89-1.63 1.82a1.8 1.8 0 001.71 1.76c.26.01.61-.01.78-.17 1.12-1.08 2.22-2.2 3.44-3.42zm21.14-.14c-.33.18-.62.27-.8.45-1.08 1.05-2.14 2.13-3.27 3.26h4.08c-.01-1.18-.01-2.34-.01-3.71z"/><path d="M36.52 23.81V12.46c0-.96.27-1.24 1.24-1.24h15.58c.96 0 1.25.29 1.25 1.24v22.81c0 .95-.29 1.24-1.24 1.24H37.77c-.96 0-1.24-.28-1.24-1.24-.01-3.82-.01-7.64-.01-11.46zm16.23-10.74H38.37v21.61h14.38V13.07z"/></g></switch></svg>