<svg xmlns="http://www.w3.org/2000/svg" viewBox="0 0 512 512"><path d="M136 288H48a32.036 32.036 0 01-32-32V48a32.036 32.036 0 0132-32h208a32.036 32.036 0 0132 32v136h-16V48a16.019 16.019 0 00-16-16H48a16.019 16.019 0 00-16 16v208a16.019 16.019 0 0016 16h88z"/><path d="M120 256H72a8 8 0 01-8-8V56a8 8 0 018-8h96a72 72 0 010 144h-40v56a8 8 0 01-8 8zm-40-16h32v-56a8 8 0 018-8h48a56 56 0 000-112H80zm88-96h-48a8 8 0 01-8-8v-32a8 8 0 018-8h48a24 24 0 010 48zm-40-16h40a8 8 0 000-16h-40zm357.657 202.343a35.057 35.057 0 00-23.882-10.317l-32.716-98.147A31.965 31.965 0 00398.7 200H209.3a31.965 31.965 0 00-30.359 21.879l-32.716 98.147A35.3 35.3 0 00112 355.313V416a32.036 32.036 0 0032 32h56v32h-48v-16h-16v16a16.019 16.019 0 0016 16h48a16.019 16.019 0 0016-16v-32h176v32a16.019 16.019 0 0016 16h48a16.019 16.019 0 0016-16v-33.013A32.057 32.057 0 00496 416v-60.687a35.082 35.082 0 00-10.343-24.97zM209.3 216h189.4a15.986 15.986 0 0115.181 10.941l1.686 5.059H192.433l1.686-5.059A15.986 15.986 0 01209.3 216zm-22.2 32h233.8l24 72H163.1zM456 480h-48v-32h48l.008 32zm24-64a16.019 16.019 0 01-16 16H144a16.019 16.019 0 01-16-16v-60.687A19.314 19.314 0 01147.313 336h313.374A19.314 19.314 0 01480 355.313z"/><path d="M176 352a32 32 0 1032 32 32.036 32.036 0 00-32-32zm0 48a16 16 0 1116-16 16.019 16.019 0 01-16 16zm256-48a32 32 0 1032 32 32.036 32.036 0 00-32-32zm0 48a16 16 0 1116-16 16.019 16.019 0 01-16 16zm-208-40h160v16H224zm0 32h160v16H224z"/></svg>